<?xml version="1.0" encoding="UTF-8"?>
<svg width="24px" height="10px" viewBox="0 0 24 10" version="1.1" xmlns="http://www.w3.org/2000/svg" xmlns:xlink="http://www.w3.org/1999/xlink">
    <!-- Generator: Sketch 52.6 (67491) - http://www.bohemiancoding.com/sketch -->
    <title>npm</title>
    <desc>Created with Sketch.</desc>
    <g id="Page-1" stroke="none" stroke-width="1" fill="none" fill-rule="evenodd">
        <g id="npm" fill="#777777" fill-rule="nonzero">
            <path d="M0,0.334 L0,8.334 L6.666,8.334 L6.666,9.666 L12,9.666 L12,8.334 L24,8.334 L24,0.334 L0,0.334 Z M6.666,6.998 L5.334,6.998 L5.334,2.998 L3.999,2.998 L3.999,6.998 L1.335,6.998 L1.335,1.667 L6.666,1.667 L6.666,6.998 Z M10.666,6.998 L10.666,8.334 L8.001,8.334 L8.001,1.667 L13.335,1.667 L13.335,6.999 L10.666,6.999 L10.666,6.998 Z M22.667,6.998 L21.337,6.998 L21.337,2.998 L20.001,2.998 L20.001,6.998 L18.666,6.998 L18.666,2.998 L17.336,2.998 L17.336,6.998 L14.665,6.998 L14.665,1.667 L22.667,1.667 L22.667,6.998 Z M10.665,3 L12,3 L12,5.667 L10.665,5.667 L10.665,3 Z" id="Shape"></path>
        </g>
    </g>
</svg>